<?xml version="1.0" standalone="no"?>
<!DOCTYPE svg PUBLIC "-//W3C//DTD SVG 20010904//EN"
 "http://www.w3.org/TR/2001/REC-SVG-20010904/DTD/svg10.dtd">
<svg version="1.0" xmlns="http://www.w3.org/2000/svg"
 width="792.000000pt" height="250.000000pt" viewBox="0 0 792.000000 250.000000"
 preserveAspectRatio="xMidYMid meet">

<g transform="translate(0.000000,250.000000) scale(0.100000,-0.100000)"
fill="#000000" stroke="none">
<path d="M860 2104 c0 -14 18 -99 40 -187 21 -89 42 -181 46 -204 8 -53 24
-54 52 -4 31 55 28 115 -12 258 -44 156 -48 163 -91 163 -31 0 -35 -3 -35 -26z"/>
<path d="M654 2053 c2 -72 8 -95 66 -268 74 -221 59 -248 -34 -62 -61 121 -80
144 -52 60 24 -69 -1 -39 -55 67 -54 108 -78 140 -102 140 -21 0 -21 -2 10
-83 15 -39 16 -49 5 -56 -11 -7 -10 -17 7 -54 42 -93 90 -218 97 -254 11 -61
-16 -36 -85 80 -36 59 -66 105 -68 104 -2 -2 6 -29 17 -61 10 -31 16 -55 12
-52 -4 2 -29 38 -57 80 -51 76 -87 108 -105 90 -15 -15 146 -324 169 -324 24
0 24 95 1 128 -7 9 3 1 21 -19 19 -20 46 -44 62 -54 27 -17 28 -17 67 9 23 15
38 33 38 43 -1 10 1 30 5 45 l7 27 33 -19 c57 -35 59 -35 89 0 26 31 38 90 28
135 -1 6 -3 19 -5 30 -2 11 -18 56 -35 100 -17 44 -40 101 -50 127 -22 57 -57
108 -74 108 -10 0 -13 -18 -12 -67z"/>
<path d="M1170 2086 c0 -2 8 -10 18 -17 15 -13 16 -12 3 4 -13 16 -21 21 -21
13z"/>
<path d="M1219 2042 c5 -10 18 -25 27 -33 11 -9 9 -2 -6 19 -26 35 -36 42 -21
14z"/>
<path d="M2138 1905 c-126 -31 -220 -101 -268 -200 -22 -44 -25 -63 -25 -160
0 -96 3 -116 24 -160 39 -79 115 -145 228 -200 54 -26 126 -61 161 -78 34 -16
78 -48 98 -70 35 -38 36 -42 32 -98 -5 -73 -38 -112 -112 -134 -103 -31 -206
-14 -344 57 -78 40 -83 41 -100 25 -25 -25 -24 -162 1 -201 39 -58 213 -116
352 -116 210 0 382 92 451 243 26 56 29 72 29 167 0 95 -3 111 -28 162 -44 89
-105 136 -306 236 -195 96 -221 119 -221 194 0 142 177 180 377 81 40 -19 79
-33 86 -30 25 10 34 115 16 180 -9 33 -18 42 -64 63 -111 51 -270 67 -387 39z"/>
<path d="M3191 1898 c-22 -11 -54 -97 -238 -627 -117 -338 -213 -627 -213
-642 0 -39 24 -49 119 -49 127 0 123 -4 176 165 l46 145 246 -2 246 -3 47
-140 c37 -112 51 -143 71 -153 16 -9 59 -12 132 -10 117 3 132 10 120 58 -17
70 -427 1237 -440 1250 -19 21 -276 27 -312 8z m225 -510 c48 -145 89 -269 92
-275 3 -10 -37 -13 -181 -13 l-185 0 91 275 c51 151 93 275 94 275 1 0 41
-118 89 -262z"/>
<path d="M4153 1903 c-12 -2 -26 -10 -32 -17 -8 -10 -11 -196 -9 -636 l3 -622
24 -19 c22 -18 43 -19 347 -19 l323 0 13 23 c16 29 15 161 -2 182 -10 13 -45
15 -226 15 l-214 0 0 539 0 539 -31 11 c-31 11 -150 13 -196 4z"/>
<path d="M5331 1898 c-22 -11 -54 -97 -238 -627 -117 -338 -213 -627 -213
-642 0 -39 24 -49 119 -49 127 0 123 -4 176 165 l46 145 246 -2 246 -3 47
-140 c37 -112 51 -143 71 -153 16 -9 59 -12 132 -10 117 3 132 10 120 58 -17
70 -427 1237 -440 1250 -19 21 -276 27 -312 8z m225 -510 c48 -145 89 -269 92
-275 3 -10 -37 -13 -181 -13 l-185 0 91 275 c51 151 93 275 94 275 1 0 41
-118 89 -262z"/>
<path d="M6299 1885 c-15 -8 -32 -29 -38 -46 -8 -22 -11 -219 -11 -629 0 -543
1 -599 17 -611 23 -19 180 -24 213 -7 l25 14 5 532 5 532 179 -523 c99 -287
188 -531 198 -542 15 -17 34 -20 111 -23 61 -2 100 2 116 10 20 11 55 99 217
553 l193 540 1 -536 c0 -487 2 -538 17 -550 22 -19 206 -20 225 -1 10 10 13
135 13 615 0 331 -3 614 -8 629 -13 47 -50 58 -197 58 -146 0 -185 -10 -217
-56 -11 -16 -92 -219 -179 -451 -87 -232 -162 -419 -165 -415 -3 4 -73 192
-154 417 -82 226 -157 423 -168 439 -36 52 -85 66 -237 65 -98 0 -142 -4 -161
-14z"/>
<path d="M826 1850 c10 -54 48 -132 79 -160 l28 -25 -31 55 c-17 30 -42 80
-56 110 -22 47 -25 50 -20 20z"/>
<path d="M1420 1580 c-28 -27 -50 -57 -51 -67 0 -10 -2 -26 -4 -36 -6 -33 23
-29 59 7 20 19 36 40 36 45 0 5 3 11 8 13 9 4 62 74 62 82 0 3 -14 6 -30 6
-24 0 -43 -12 -80 -50z"/>
<path d="M232 1354 c15 -16 42 -37 60 -47 32 -17 32 -17 8 0 -13 10 -40 31
-60 48 l-35 29 27 -30z"/>
<path d="M671 1044 c0 -11 3 -14 6 -6 3 7 2 16 -1 19 -3 4 -6 -2 -5 -13z"/>
<path d="M690 1010 c-12 -8 -10 -10 8 -10 13 0 20 4 17 10 -7 12 -6 12 -25 0z"/>
<path d="M700 980 c0 -5 7 -10 15 -10 8 0 12 -6 9 -13 -6 -17 21 -41 36 -32 5
3 11 1 11 -4 1 -6 2 -15 3 -20 0 -5 5 -13 10 -18 5 -5 6 -3 2 5 -4 6 -2 12 4
12 8 0 8 3 0 13 -6 6 -20 27 -30 45 -19 30 -60 46 -60 22z m60 -40 c0 -5 -4
-10 -10 -10 -5 0 -10 5 -10 10 0 6 5 10 10 10 6 0 10 -4 10 -10z"/>
<path d="M800 879 c0 -5 5 -7 10 -4 6 3 10 8 10 11 0 2 -4 4 -10 4 -5 0 -10
-5 -10 -11z"/>
<path d="M825 850 c3 -5 11 -10 16 -10 6 0 7 5 4 10 -3 6 -11 10 -16 10 -6 0
-7 -4 -4 -10z"/>
<path d="M1352 838 c-18 -11 -45 -20 -60 -20 -70 1 -264 -58 -372 -113 -27
-14 -56 -25 -65 -25 -8 0 -15 -4 -15 -10 0 -13 35 -13 79 0 46 13 52 4 10 -15
l-34 -16 33 5 c20 4 31 2 27 -4 -3 -6 -13 -10 -20 -10 -17 0 -37 -34 -27 -45
4 -3 7 -10 7 -13 0 -12 38 -106 51 -127 6 -11 17 -38 24 -59 11 -33 14 -36 22
-21 7 12 7 20 -2 25 -14 9 -22 88 -9 96 4 2 16 -10 25 -28 9 -18 20 -35 24
-38 12 -8 22 -50 12 -50 -5 0 -12 -10 -16 -22 -5 -18 -8 -20 -15 -9 -7 10 -10
11 -16 1 -10 -16 23 -42 44 -36 48 15 71 17 71 9 0 -6 -15 -15 -32 -21 l-33
-11 34 4 c19 2 37 8 40 13 3 5 17 15 31 22 24 13 24 12 10 -5 -14 -17 -13 -18
3 -12 10 4 21 7 23 7 3 0 3 4 0 8 -3 5 9 9 25 9 17 0 35 6 40 14 5 8 9 10 9 4
0 -5 5 -3 10 7 6 9 50 33 99 53 49 21 102 49 118 64 16 14 22 21 14 15 -37
-27 -88 -47 -126 -49 -166 -11 -178 -10 -187 15 -5 13 -6 31 -2 39 3 9 7 54 9
101 1 47 3 90 4 97 2 22 104 124 138 138 18 8 33 19 33 24 0 13 2 14 -38 -11z
m-82 -44 c0 -6 -145 -74 -157 -73 -4 0 28 18 72 39 91 44 85 42 85 34z m-180
-84 c-8 -5 -19 -10 -25 -10 -5 0 -3 5 5 10 8 5 20 10 25 10 6 0 3 -5 -5 -10z"/>
<path d="M873 800 c-18 -11 -33 -26 -33 -34 0 -12 15 -8 67 15 64 29 100 50
60 36 -45 -17 -70 -20 -63 -8 10 15 6 14 -31 -9z"/>
<path d="M1028 273 c6 -2 18 -2 25 0 6 3 1 5 -13 5 -14 0 -19 -2 -12 -5z"/>
</g>
</svg>
