<?xml version="1.0" standalone="no"?>
<!DOCTYPE svg PUBLIC "-//W3C//DTD SVG 20010904//EN"
 "http://www.w3.org/TR/2001/REC-SVG-20010904/DTD/svg10.dtd">
<svg version="1.0" xmlns="http://www.w3.org/2000/svg"
 width="792.000000pt" height="250.000000pt" viewBox="0 0 792.000000 250.000000"
 preserveAspectRatio="xMidYMid meet">

<g transform="translate(0.000000,250.000000) scale(0.100000,-0.100000)"
fill="#000000" stroke="none">
<path d="M883 2132 c-32 -5 -30 -25 17 -215 21 -89 42 -181 46 -205 4 -23 10
-45 15 -47 4 -3 20 15 35 40 40 69 34 126 -32 337 -25 80 -41 97 -81 90z"/>
<path d="M653 2058 c-1 -65 1 -75 66 -268 75 -226 61 -254 -33 -67 -33 64 -61
115 -63 113 -2 -1 3 -24 11 -49 21 -69 1 -48 -51 56 -58 117 -79 147 -105 147
-22 0 -22 -1 9 -83 15 -39 16 -49 5 -56 -11 -7 -10 -17 7 -54 42 -93 90 -218
97 -254 11 -61 -16 -36 -85 80 -36 59 -66 105 -68 104 -2 -2 6 -30 17 -63 21
-64 24 -67 -58 45 -52 71 -76 91 -91 76 -10 -11 104 -247 147 -304 l26 -35 7
28 c5 16 4 49 -1 75 l-8 46 26 -32 c15 -17 39 -38 54 -48 25 -16 28 -15 67 7
33 19 41 29 41 53 0 54 12 61 60 34 l42 -24 28 34 c30 35 42 102 28 158 -9 41
-69 196 -79 208 -5 5 -9 16 -9 25 0 24 -57 110 -73 110 -10 0 -14 -17 -14 -62z"/>
<path d="M1210 2047 c25 -26 46 -47 48 -47 10 0 -34 50 -60 70 -27 19 -25 15
12 -23z"/>
<path d="M825 1857 c12 -62 47 -135 77 -163 l31 -29 -31 56 c-18 31 -43 81
-57 110 -15 32 -23 42 -20 26z"/>
<path d="M1421 1582 c-58 -58 -80 -133 -38 -132 12 1 138 147 145 169 2 7 -9
11 -28 11 -24 0 -42 -11 -79 -48z"/>
<path d="M232 1354 c15 -16 42 -37 60 -47 32 -17 32 -17 8 0 -13 10 -40 31
-60 48 l-35 29 27 -30z"/>
<path d="M690 1010 c-14 -9 -7 -14 13 -11 5 1 6 -3 3 -8 -4 -5 2 -14 11 -20
10 -6 14 -11 10 -11 -14 0 14 -40 28 -40 8 0 15 -7 15 -15 0 -8 7 -15 15 -15
8 0 15 -4 15 -10 0 -5 4 -10 10 -10 5 0 -9 27 -31 60 -22 33 -44 60 -49 60 -6
0 -10 7 -10 15 0 17 -9 19 -30 5z"/>
<path d="M820 850 c0 -5 5 -10 10 -10 6 0 10 5 10 10 0 6 -4 10 -10 10 -5 0
-10 -4 -10 -10z"/>
<path d="M1345 834 c-22 -13 -49 -22 -59 -20 -43 11 -254 -52 -366 -109 -27
-14 -56 -25 -65 -25 -8 0 -15 -4 -15 -10 0 -13 35 -13 79 0 47 13 51 5 7 -14
-51 -21 -45 -28 12 -11 41 12 45 12 28 0 -11 -8 -25 -15 -32 -15 -18 0 -33
-31 -24 -49 4 -9 25 -56 45 -106 53 -130 57 -136 49 -95 -4 19 -7 45 -9 57 -1
13 -5 26 -8 30 -11 10 -8 25 3 18 6 -3 10 0 10 7 1 7 10 -5 20 -26 11 -22 24
-42 28 -45 13 -9 21 -51 10 -51 -5 0 -7 -4 -4 -8 2 -4 0 -14 -5 -22 -7 -13
-10 -13 -18 -1 -5 8 -11 9 -15 3 -9 -15 23 -44 43 -38 48 15 71 17 71 9 0 -6
-15 -15 -32 -21 l-33 -11 30 4 c17 2 36 4 43 4 7 1 11 5 8 10 -6 9 16 21 37
21 7 0 6 -5 -3 -11 -12 -9 -12 -10 3 -5 10 3 21 6 23 6 3 0 3 4 0 8 -3 5 9 9
25 9 17 0 35 6 40 14 5 8 9 10 9 4 0 -5 5 -3 10 7 6 9 50 33 99 53 49 21 104
50 123 66 33 29 33 29 -16 -2 -45 -30 -56 -33 -150 -36 -55 -2 -106 -5 -111
-7 -6 -2 -18 9 -27 25 -10 16 -14 29 -9 29 4 0 8 41 9 90 2 50 7 102 12 116
14 37 100 125 138 141 17 7 32 18 32 23 0 12 4 13 -45 -16z m-140 -75 c-44
-21 -84 -38 -90 -38 -13 1 147 78 160 78 6 -1 -26 -18 -70 -40z m-115 -49 c-8
-5 -19 -10 -25 -10 -5 0 -3 5 5 10 8 5 20 10 25 10 6 0 3 -5 -5 -10z"/>
<path d="M945 810 c-11 -4 -29 -6 -41 -3 -22 5 -69 -27 -63 -44 2 -6 33 3 74
23 62 28 84 47 30 24z"/>
<path d="M1028 273 c6 -2 18 -2 25 0 6 3 1 5 -13 5 -14 0 -19 -2 -12 -5z"/>
</g>
</svg>
